# xmcd
#
# Track frame offsets:
#	150
#	11314
#	47210
#	72674
#	84332
#	107961
#	138396
#	179610
#	194949
#	208749
#	226188
#	249589
#	272819
#
# Disc length: 4090 seconds
#
# Revision: 0
# Processed by: cddbd v1.5.2PL0 Copyright (c) Steve Scherf et al.
# Submitted via: EZCDAudioConverter 1.3.3.1
#
DISCID=c50ff80d
DTITLE=小提琴精选名曲
DYEAR=1900
DGENRE=
TTITLE0=乘着歌声的翅膀
TTITLE1=小调小提琴协奏曲
TTITLE2=春天快板
TTITLE3=匈牙利舞曲
TTITLE4=C大调小提琴回旋曲
TTITLE5=春之歌
TTITLE6=流浪者之歌
TTITLE7=爱的礼赞
TTITLE8=卡门主题幻想曲
TTITLE9=升C小调夜曲
TTITLE10=卡农小提琴独奏曲
TTITLE11=辛德勒的名单
TTITLE12=小夜曲
EXTD=
EXTT0=
EXTT1=
EXTT2=
EXTT3=
EXTT4=
EXTT5=
EXTT6=
EXTT7=
EXTT8=
EXTT9=
EXTT10=
EXTT11=
EXTT12=
PLAYORDER=
